<svg preserveAspectRatio="none" width="100%" height="100%" overflow="visible" style="display: block;" viewBox="0 0 141 96" fill="none" xmlns="http://www.w3.org/2000/svg">
<path id="Vector" d="M134.591 50.0005C131.777 44.3134 131.55 39.4347 133.005 33.2249C134.612 26.3668 136.164 17.609 132.318 11.3713C128.929 5.8749 123.603 1.97725 117.896 0.543194C110.652 -1.2781 104.585 1.66971 98.7759 6.5637C90.8024 13.281 77.0165 18.7601 67.1916 15.7884C58.6085 13.192 52.2653 4.53982 43.2195 2.86332C36.9808 1.70757 27.6808 3.5488 25.6739 11.6403C25.1477 13.7619 25.1682 16.0747 24.3156 18.0521C22.3431 22.6272 17.3463 22.1909 13.6051 22.604C6.84817 23.3493 0.563878 27.6262 0.0753792 34.6849C-0.132464 37.6931 0.0131585 40.4291 1.49851 43.1059C2.66482 45.2068 4.40104 46.0603 6.33054 47.4625C10.459 50.4628 14.4715 54.2044 15.8 59.3268C17.3244 65.2045 14.9388 71.4183 15.5452 77.4614C16.2283 84.2704 20.8822 90.3772 26.9772 93.4479C31.6279 95.7906 37.002 96.4462 42.1253 95.7156C46.7938 95.05 51.1486 94.8846 55.6689 93.238C61.2145 91.2175 66.4066 88.3354 71.9456 86.2265C77.3799 84.1574 83.3406 82.366 88.9225 83.9914C93.094 85.2063 96.4877 88.174 100.191 90.4503C106.433 94.2868 113.968 96.221 121.197 95.0666C128.426 93.9122 135.229 89.4672 138.548 82.9207C143.929 72.3091 139.465 59.8536 134.59 49.9998L134.591 50.0005Z" fill="url(#paint0_linear_0_333)"/>
<defs>
<linearGradient id="paint0_linear_0_333" x1="-7.98899e-05" y1="47.9992" x2="141" y2="47.9992" gradientUnits="userSpaceOnUse">
<stop stop-color="#DAE3FE"/>
<stop offset="1" stop-color="#E9EFFD"/>
</linearGradient>
</defs>
</svg>
