<svg preserveAspectRatio="none" width="100%" height="100%" overflow="visible" style="display: block;" viewBox="0 0 101 77" fill="none" xmlns="http://www.w3.org/2000/svg">
<g id="Group">
<path id="Vector" d="M42.4678 53.2243L40.2888 72.7981H65.5697L62.2767 53.2243H42.4678Z" fill="url(#paint0_linear_0_101)"/>
<path id="Vector_2" d="M0.000363715 4.99835V49.8277C0.000363715 53.5154 2.93438 56.5313 6.61509 56.6264C22.963 57.0486 80.1398 58.0722 95.7017 57.8427C98.3764 57.8034 100.543 55.6596 100.62 52.9813C100.921 42.5668 101.408 17.5236 99.6043 5.89704C99.2246 3.44868 97.1609 1.61778 94.6884 1.53837C80.9909 1.0994 20.3799 -0.293992 4.82493 0.055722C2.14223 0.116193 0 2.31101 0 4.99835H0.000363715Z" fill="url(#paint1_linear_0_101)"/>
<path id="Vector_3" d="M2.8089 4.78014V47.371C2.8089 49.5243 4.53469 51.2787 6.6842 51.3107L93.4631 52.3846C95.594 52.4167 97.3409 50.6994 97.3489 48.5647L97.494 6.35422C97.4999 4.82787 96.2858 3.57727 94.7622 3.54012L5.91678 1.74236C4.21281 1.70084 2.80927 3.0731 2.80927 4.78014H2.8089Z" fill="var(--fill-0, #91B3FA)"/>
<path id="Vector_4" d="M98.0022 54.143H98L2.80672 52.5187C2.73325 52.5172 2.67433 52.4568 2.67579 52.3832C2.67688 52.3092 2.73544 52.2531 2.81145 52.252L98.0047 53.8764C98.0782 53.8778 98.1371 53.9383 98.1356 54.0119C98.1345 54.0848 98.0749 54.143 98.0025 54.143H98.0022Z" fill="var(--fill-0, #91B3FA)"/>
<path id="Vector_5" d="M71.0151 76.8027H34.0149C33.0096 76.8027 32.2549 76.0862 32.4492 75.3161L32.9238 73.4352C33.0667 72.8695 33.6879 72.4546 34.4255 72.4313L70.0953 71.3166C70.866 71.2925 71.5487 71.7023 71.7167 72.2899L72.5725 75.2855C72.7947 76.0636 72.0364 76.8023 71.0151 76.8023V76.8027Z" fill="url(#paint2_linear_0_101)"/>
<path id="Vector_6" d="M53.9326 72.954C53.8598 72.954 53.8005 72.8954 53.7995 72.8225C53.7984 72.7486 53.8573 72.6881 53.9308 72.687L55.4594 72.6648H55.4616C55.5343 72.6648 55.5936 72.7234 55.5947 72.7963C55.5958 72.8699 55.5369 72.9307 55.4634 72.9318L53.9348 72.954H53.9326Z" fill="var(--fill-0, #91B3FA)"/>
<path id="Vector_7" d="M33.8192 75.7787C33.8123 75.7787 33.8051 75.7783 33.7981 75.7769C33.7254 75.7652 33.6759 75.6967 33.6876 75.6242L33.9054 74.2564C34.0236 73.515 34.6532 72.9693 35.4025 72.958L51.6143 72.7205C51.6845 72.7176 51.7485 72.7784 51.7496 72.852C51.7507 72.9256 51.6918 72.9865 51.6183 72.9875L35.4065 73.2251C34.7871 73.2342 34.2666 73.6855 34.1688 74.2982L33.9509 75.6661C33.9404 75.7317 33.884 75.7787 33.8196 75.7787H33.8192Z" fill="var(--fill-0, #91B3FA)"/>
</g>
<defs>
<linearGradient id="paint0_linear_0_101" x1="52.9291" y1="51.2543" x2="52.9291" y2="95.382" gradientUnits="userSpaceOnUse">
<stop stop-color="#09005D"/>
<stop offset="1" stop-color="#1A0F91"/>
</linearGradient>
<linearGradient id="paint1_linear_0_101" x1="49.8747" y1="-19.6008" x2="50.6117" y2="56.1517" gradientUnits="userSpaceOnUse">
<stop stop-color="#09005D"/>
<stop offset="1" stop-color="#1A0F91"/>
</linearGradient>
<linearGradient id="paint2_linear_0_101" x1="55.5802" y1="38.7213" x2="52.388" y2="76.9647" gradientUnits="userSpaceOnUse">
<stop stop-color="#09005D"/>
<stop offset="1" stop-color="#1A0F91"/>
</linearGradient>
</defs>
</svg>
